<svg width="80" height="80" viewBox="0 0 80 80" fill="none" xmlns="http://www.w3.org/2000/svg">
<rect width="80" height="80" fill="#0900FF"/>
<path d="M33.524 24.972H37.304C38.12 24.972 38.648 25.104 38.888 25.368C39.152 25.632 39.284 26.184 39.284 27.024V46.86H42.2C42.56 46.86 42.8 46.908 42.92 47.004C43.04 47.1 43.1 47.28 43.1 47.544V51H34.82C34.436 51 34.124 50.88 33.884 50.64C33.644 50.376 33.524 50.028 33.524 49.596V24.972ZM32.444 51H27.224V47.544C27.224 47.28 27.284 47.1 27.404 47.004C27.524 46.908 27.764 46.86 28.124 46.86H32.444V51ZM32.444 29.112H28.484C27.884 29.112 27.584 28.776 27.584 28.104V24.972H32.444V29.112Z" fill="white"/>
</svg>
