<svg width="80" height="80" viewBox="0 0 80 80" fill="none" xmlns="http://www.w3.org/2000/svg">
<rect width="80" height="80" fill="#FF0000"/>
<path d="M36.964 28.008H44.2C45.544 28.008 46.444 28.32 46.9 28.944C47.356 29.544 47.584 30.468 47.584 31.716V52.308C47.584 53.484 46.84 54.072 45.352 54.072H41.824V32.544C41.824 32.136 41.764 31.86 41.644 31.716C41.524 31.548 41.212 31.464 40.708 31.464H36.964V28.008ZM35.956 46.08V49.5C35.956 49.908 35.992 50.196 36.064 50.364C36.16 50.508 36.376 50.58 36.712 50.58H40.384V54H33.4C32.056 54 31.18 53.688 30.772 53.064C30.388 52.44 30.196 51.468 30.196 50.148V47.628C30.196 46.884 30.268 46.44 30.412 46.296C30.58 46.152 31.108 46.08 31.996 46.08H35.956ZM35.524 28.008V38.268C35.524 38.652 35.572 38.928 35.668 39.096C35.788 39.24 36.064 39.312 36.496 39.312H40.384V42.732H33.652C31.3 42.732 30.124 41.652 30.124 39.492V31.536C30.124 30.216 30.388 29.304 30.916 28.8C31.444 28.272 32.32 28.008 33.544 28.008H35.524Z" fill="white"/>
</svg>
