<svg width="80" height="80" viewBox="0 0 80 80" fill="none" xmlns="http://www.w3.org/2000/svg">
<rect width="80" height="80" fill="#FF0000"/>
<path d="M40.716 24.972H43.776C44.76 24.972 45.456 25.188 45.864 25.62C46.272 26.028 46.476 26.748 46.476 27.78V34.368C46.476 35.472 46.188 36.3 45.612 36.852C46.212 37.38 46.512 38.328 46.512 39.696V47.904C46.512 49.248 46.32 50.1 45.936 50.46C45.552 50.82 44.724 51 43.452 51H40.752V40.56C40.752 40.176 40.692 39.912 40.572 39.768C40.476 39.6 40.212 39.516 39.78 39.516H35.892V36.096H38.556L39.744 36.06C40.296 36.06 40.608 35.94 40.68 35.7C40.704 35.628 40.716 35.52 40.716 35.376V24.972ZM39.312 28.392H35.892C35.388 28.392 35.076 28.476 34.956 28.644C34.836 28.788 34.776 29.064 34.776 29.472V33.468H30.816C29.928 33.468 29.4 33.396 29.232 33.252C29.088 33.108 29.016 32.664 29.016 31.92V28.824C29.016 27.504 29.208 26.532 29.592 25.908C30 25.284 30.876 24.972 32.22 24.972H39.312V28.392ZM34.776 42.504V46.5C34.776 46.908 34.836 47.196 34.956 47.364C35.076 47.508 35.388 47.58 35.892 47.58H39.312V51H32.22C30.876 51 30 50.688 29.592 50.064C29.208 49.44 29.016 48.468 29.016 47.148V44.052C29.016 43.308 29.088 42.864 29.232 42.72C29.4 42.576 29.928 42.504 30.816 42.504H34.776Z" fill="white"/>
</svg>
