<svg width="80" height="80" viewBox="0 0 80 80" fill="none" xmlns="http://www.w3.org/2000/svg">
<rect width="80" height="80" fill="#FF0000"/>
<path d="M35.252 27.972H39.032C39.848 27.972 40.376 28.104 40.616 28.368C40.88 28.632 41.012 29.184 41.012 30.024V38.268H44.288C44.648 38.268 44.888 38.316 45.008 38.412C45.128 38.484 45.188 38.652 45.188 38.916V42.408H41.012V54H36.548C36.164 54 35.852 53.88 35.612 53.64C35.372 53.376 35.252 53.028 35.252 52.596V27.972ZM34.172 32.148H27.692C27.092 32.148 26.792 31.812 26.792 31.14V27.972H34.172V32.148ZM34.172 42.408H29.132C28.532 42.408 28.232 42.072 28.232 41.4V38.196H34.172V42.408Z" fill="white"/>
</svg>
