<svg width="80" height="80" viewBox="0 0 80 80" fill="none" xmlns="http://www.w3.org/2000/svg">
<rect width="80" height="80" fill="#FFD900"/>
<path d="M44.848 54.036C44.824 54.036 44.788 54.036 44.74 54.036L42.04 54L42.112 42.768C42.112 42.384 42.052 42.12 41.932 41.976C41.836 41.808 41.572 41.724 41.14 41.724H39.628V38.304L44.74 38.34C46.828 38.364 47.872 39.444 47.872 41.58L47.836 50.544C47.836 51.72 47.572 52.596 47.044 53.172C46.516 53.748 45.784 54.036 44.848 54.036ZM35.704 45.504V49.5C35.68 49.884 35.728 50.16 35.848 50.328C35.992 50.496 36.316 50.58 36.82 50.58H40.6V54H33.148C31.804 54 30.928 53.688 30.52 53.064C30.136 52.44 29.944 51.468 29.944 50.148V47.052C29.944 46.308 30.016 45.864 30.16 45.72C30.328 45.576 30.856 45.504 31.744 45.504H35.704ZM37.18 38.304H38.152V41.724L32.86 41.688C32.02 41.688 31.408 41.52 31.024 41.184C30.64 40.824 30.448 40.14 30.448 39.132L30.484 30.636C30.484 29.676 30.592 29.076 30.808 28.836C31.024 28.572 31.192 28.392 31.312 28.296C31.432 28.176 31.672 28.092 32.032 28.044C32.392 27.996 32.656 27.972 32.824 27.972H36.28L36.208 37.224C36.208 37.608 36.256 37.884 36.352 38.052C36.472 38.22 36.748 38.304 37.18 38.304ZM47.944 27.972V31.104C47.944 31.776 47.644 32.112 47.044 32.112L37.72 32.148V27.972H47.944Z" fill="white"/>
</svg>
