<svg width="80" height="80" viewBox="0 0 80 80" fill="none" xmlns="http://www.w3.org/2000/svg">
<rect width="80" height="80" fill="#FF0000"/>
<path d="M39.908 42.696H38.612C38.18 42.696 37.904 42.78 37.784 42.948C37.664 43.092 37.604 43.356 37.604 43.74V54H32.744C32.12 54 31.688 53.904 31.448 53.712C31.232 53.496 31.124 53.148 31.124 52.668V41.868C31.124 40.98 31.304 40.332 31.664 39.924C32.024 39.492 32.66 39.276 33.572 39.276H39.908V42.696ZM48.476 54H43.976C43.16 54 42.62 53.868 42.356 53.604C42.116 53.34 41.996 52.788 41.996 51.948V46.332C41.996 45.492 42.116 44.94 42.356 44.676C42.62 44.412 43.16 44.28 43.976 44.28H48.476V54ZM38.18 37.62H33.68C32.864 37.62 32.324 37.488 32.06 37.224C31.82 36.96 31.7 36.408 31.7 35.568V29.988C31.7 29.148 31.82 28.596 32.06 28.332C32.324 28.068 32.864 27.936 33.68 27.936H38.18V37.62ZM43.184 27.972H48.044C48.74 27.972 49.184 28.104 49.376 28.368C49.568 28.632 49.664 29.184 49.664 30.024V40.968C49.664 41.568 49.58 42.012 49.412 42.3C49.244 42.564 48.872 42.696 48.296 42.696H41.348V39.276H42.212C42.644 39.276 42.908 39.204 43.004 39.06C43.124 38.892 43.184 38.616 43.184 38.232V27.972Z" fill="white"/>
</svg>
