<svg width="80" height="80" viewBox="0 0 80 80" fill="none" xmlns="http://www.w3.org/2000/svg">
<rect width="80" height="80" fill="#FF0000"/>
<path d="M35.336 54H32.456L45.848 27.972H48.728L35.336 54ZM46.424 43.956H45.848C45.416 43.956 45.2 44.112 45.2 44.424V52.02C45.2 52.332 45.416 52.488 45.848 52.488H46.424V54H44.84C43.808 54 43.16 53.628 42.896 52.884C42.632 52.116 42.5 50.568 42.5 48.24V48.168C42.5 45.744 42.644 44.184 42.932 43.488C43.244 42.768 44 42.408 45.2 42.408H46.424V43.956ZM34.22 29.52H33.644C33.212 29.52 32.996 29.676 32.996 29.988V37.584C32.996 37.896 33.212 38.052 33.644 38.052H34.22V39.564H32.636C31.604 39.564 30.956 39.192 30.692 38.448C30.428 37.68 30.296 36.132 30.296 33.804V33.732C30.296 31.308 30.44 29.748 30.728 29.052C31.04 28.332 31.796 27.972 32.996 27.972H34.22V29.52ZM47.072 42.408H48.296C49.472 42.408 50.204 42.768 50.492 43.488C50.804 44.208 50.96 45.768 50.96 48.168V48.24C50.96 50.568 50.828 52.116 50.564 52.884C50.3 53.628 49.664 54 48.656 54H47.072V52.488H47.576C48.032 52.488 48.26 52.332 48.26 52.02V44.424C48.26 44.112 48.032 43.956 47.576 43.956H47.072V42.408ZM34.868 27.972H36.092C37.268 27.972 38 28.332 38.288 29.052C38.6 29.772 38.756 31.332 38.756 33.732V33.804C38.756 36.132 38.624 37.68 38.36 38.448C38.096 39.192 37.46 39.564 36.452 39.564H34.868V38.052H35.372C35.828 38.052 36.056 37.896 36.056 37.584V29.988C36.056 29.676 35.828 29.52 35.372 29.52H34.868V27.972Z" fill="white"/>
</svg>
