<svg width="80" height="80" viewBox="0 0 80 80" fill="none" xmlns="http://www.w3.org/2000/svg">
<rect width="80" height="80" fill="#FFD900"/>
<path d="M37.376 27.972H41.156C41.972 27.972 42.5 28.104 42.74 28.368C43.004 28.632 43.136 29.184 43.136 30.024V39.816H45.332C45.692 39.816 45.932 39.864 46.052 39.96C46.172 40.032 46.232 40.2 46.232 40.464V43.236H43.136V54H38.672C38.288 54 37.976 53.88 37.736 53.64C37.496 53.376 37.376 53.028 37.376 52.596V27.972ZM32.876 27.972V38.772C32.876 39.132 32.948 39.396 33.092 39.564C33.26 39.732 33.632 39.816 34.208 39.816H35.936V43.236H29.924C28.94 43.236 28.28 43.08 27.944 42.768C27.632 42.456 27.476 41.772 27.476 40.716V30.744C27.476 29.448 27.668 28.668 28.052 28.404C28.436 28.116 29.264 27.972 30.536 27.972H32.876Z" fill="white"/>
</svg>
