<svg width="80" height="80" viewBox="0 0 80 80" fill="none" xmlns="http://www.w3.org/2000/svg">
<rect width="80" height="80" fill="#FFD900"/>
<path d="M34.748 54H34.316C33.356 54 32.552 53.928 31.904 53.784C31.28 53.64 30.728 53.352 30.248 52.92C29.792 52.464 29.432 51.96 29.168 51.408C28.928 50.856 28.736 50.028 28.592 48.924C28.376 47.268 28.268 45.048 28.268 42.264C28.268 39.456 28.28 37.476 28.304 36.324C28.352 35.172 28.448 34.056 28.592 32.976C28.736 31.872 28.928 31.056 29.168 30.528C29.432 29.976 29.792 29.484 30.248 29.052C30.728 28.596 31.28 28.308 31.904 28.188C32.552 28.044 33.356 27.972 34.316 27.972H34.748V54ZM36.188 27.972H40.76C42.512 27.972 43.832 28.272 44.72 28.872C45.632 29.472 46.088 30.516 46.088 32.004V35.244C46.088 35.748 45.92 36 45.584 36H41.048C40.712 36 40.508 35.952 40.436 35.856C40.364 35.76 40.328 35.556 40.328 35.244V32.436C40.328 32.052 40.268 31.788 40.148 31.644C40.052 31.476 39.788 31.392 39.356 31.392H36.188V27.972ZM41.048 45.972H45.584C45.92 45.972 46.088 46.224 46.088 46.728V49.968C46.088 51.456 45.632 52.5 44.72 53.1C43.832 53.7 42.512 54 40.76 54H36.188V50.58H39.356C39.788 50.58 40.052 50.508 40.148 50.364C40.268 50.196 40.328 49.92 40.328 49.536V46.728C40.328 46.416 40.364 46.212 40.436 46.116C40.508 46.02 40.712 45.972 41.048 45.972Z" fill="white"/>
</svg>
