<svg width="80" height="80" viewBox="0 0 80 80" fill="none" xmlns="http://www.w3.org/2000/svg">
<rect width="80" height="80" fill="#FF0000"/>
<path d="M33.524 27.972H37.304C38.12 27.972 38.648 28.104 38.888 28.368C39.152 28.632 39.284 29.184 39.284 30.024V49.86H42.2C42.56 49.86 42.8 49.908 42.92 50.004C43.04 50.1 43.1 50.28 43.1 50.544V54H34.82C34.436 54 34.124 53.88 33.884 53.64C33.644 53.376 33.524 53.028 33.524 52.596V27.972ZM32.444 54H27.224V50.544C27.224 50.28 27.284 50.1 27.404 50.004C27.524 49.908 27.764 49.86 28.124 49.86H32.444V54ZM32.444 32.112H28.484C27.884 32.112 27.584 31.776 27.584 31.104V27.972H32.444V32.112Z" fill="white"/>
</svg>
