<svg width="80" height="80" viewBox="0 0 80 80" fill="none" xmlns="http://www.w3.org/2000/svg">
<rect width="80" height="80" fill="#FF0000"/>
<path d="M37.788 27.972H40.488C42.528 27.972 43.548 29.136 43.548 31.464V40.608C43.548 42.768 42.492 43.848 40.38 43.848H35.412V40.428H36.816C37.248 40.428 37.512 40.356 37.608 40.212C37.728 40.044 37.788 39.768 37.788 39.384V27.972ZM33.972 43.848H32.964C32.532 43.848 32.256 43.932 32.136 44.1C32.04 44.244 31.992 44.508 31.992 44.892V54H28.932C27.756 54 27.012 53.808 26.7 53.424C26.388 53.04 26.232 52.08 26.232 50.544V42.948C26.232 41.892 26.412 41.208 26.772 40.896C27.132 40.584 27.888 40.428 29.04 40.428H33.972V43.848ZM42.648 49.86C43.248 49.86 43.548 50.196 43.548 50.868V54H33.468L33.432 49.86H42.648ZM36.348 31.392H32.928C32.424 31.392 32.112 31.476 31.992 31.644C31.872 31.788 31.812 32.064 31.812 32.472V36.468H27.852C26.964 36.468 26.436 36.396 26.268 36.252C26.124 36.108 26.052 35.664 26.052 34.92V31.824C26.052 30.504 26.244 29.532 26.628 28.908C27.036 28.284 27.912 27.972 29.256 27.972H36.348V31.392Z" fill="white"/>
</svg>
