<svg width="80" height="80" viewBox="0 0 80 80" fill="none" xmlns="http://www.w3.org/2000/svg">
<rect width="80" height="80" fill="#0900FF"/>
<path d="M39.376 40.32H44.128C46.24 40.32 47.296 41.4 47.296 43.56V50.508C47.296 52.836 46.276 54 44.236 54H41.536V44.784C41.536 44.4 41.476 44.136 41.356 43.992C41.26 43.824 40.996 43.74 40.564 43.74H39.376V40.32ZM36.64 43.38V49.5C36.64 49.788 36.652 49.992 36.676 50.112C36.748 50.424 37.108 50.58 37.756 50.58H40.096V54H33.364C32.02 54 31.144 53.688 30.736 53.064C30.352 52.44 30.16 51.468 30.16 50.148V46.008C30.16 45.168 30.328 44.52 30.664 44.064C31 43.608 31.672 43.38 32.68 43.38H36.64ZM35.956 27.972V36.756C35.956 37.14 36.004 37.416 36.1 37.584C36.22 37.728 36.496 37.8 36.928 37.8H38.08V41.22H33.724C31.372 41.22 30.196 40.14 30.196 37.98V31.464C30.196 30.144 30.46 29.232 30.988 28.728C31.516 28.224 32.392 27.972 33.616 27.972H35.956ZM37.396 27.972H43.912C45.256 27.972 46.156 28.272 46.612 28.872C47.068 29.472 47.296 30.396 47.296 31.644V36.756C47.296 37.932 46.552 38.52 45.064 38.52H41.536V32.472C41.536 32.064 41.476 31.788 41.356 31.644C41.236 31.476 40.924 31.392 40.42 31.392H37.396V27.972Z" fill="white"/>
</svg>
