<svg width="80" height="80" viewBox="0 0 80 80" fill="none" xmlns="http://www.w3.org/2000/svg">
<rect width="80" height="80" fill="#FF0000"/>
<path d="M35.28 27.972V49.5C35.28 49.908 35.34 50.196 35.46 50.364C35.58 50.508 35.892 50.58 36.396 50.58H40.14V54H32.904C31.56 54 30.66 53.7 30.204 53.1C29.748 52.5 29.52 51.576 29.52 50.328V29.736C29.52 28.56 30.264 27.972 31.752 27.972H35.28ZM36.72 39.312H43.452C45.804 39.312 46.98 40.392 46.98 42.552V50.508C46.98 51.828 46.716 52.74 46.188 53.244C45.66 53.748 44.784 54 43.56 54H41.58V43.776C41.58 43.392 41.52 43.128 41.4 42.984C41.304 42.816 41.04 42.732 40.608 42.732H36.72V39.312ZM36.648 27.972H44.1C45.444 27.972 46.308 28.284 46.692 28.908C47.076 29.508 47.268 30.48 47.268 31.824V34.56C47.268 35.304 47.112 35.808 46.8 36.072C46.488 36.336 45.804 36.468 44.748 36.468H41.544L41.58 32.472C41.58 32.208 41.568 32.016 41.544 31.896C41.448 31.584 41.064 31.428 40.392 31.428H36.648V27.972Z" fill="white"/>
</svg>
