<svg width="80" height="80" viewBox="0 0 80 80" fill="none" xmlns="http://www.w3.org/2000/svg">
<rect width="80" height="80" fill="#FFD900"/>
<path d="M38.336 54H35.456L48.848 27.972H51.728L38.336 54ZM49.424 43.956H48.848C48.416 43.956 48.2 44.112 48.2 44.424V52.02C48.2 52.332 48.416 52.488 48.848 52.488H49.424V54H47.84C46.808 54 46.16 53.628 45.896 52.884C45.632 52.116 45.5 50.568 45.5 48.24V48.168C45.5 45.744 45.644 44.184 45.932 43.488C46.244 42.768 47 42.408 48.2 42.408H49.424V43.956ZM37.22 29.52H36.644C36.212 29.52 35.996 29.676 35.996 29.988V37.584C35.996 37.896 36.212 38.052 36.644 38.052H37.22V39.564H35.636C34.604 39.564 33.956 39.192 33.692 38.448C33.428 37.68 33.296 36.132 33.296 33.804V33.732C33.296 31.308 33.44 29.748 33.728 29.052C34.04 28.332 34.796 27.972 35.996 27.972H37.22V29.52ZM50.072 42.408H51.296C52.472 42.408 53.204 42.768 53.492 43.488C53.804 44.208 53.96 45.768 53.96 48.168V48.24C53.96 50.568 53.828 52.116 53.564 52.884C53.3 53.628 52.664 54 51.656 54H50.072V52.488H50.576C51.032 52.488 51.26 52.332 51.26 52.02V44.424C51.26 44.112 51.032 43.956 50.576 43.956H50.072V42.408ZM37.868 27.972H39.092C40.268 27.972 41 28.332 41.288 29.052C41.6 29.772 41.756 31.332 41.756 33.732V33.804C41.756 36.132 41.624 37.68 41.36 38.448C41.096 39.192 40.46 39.564 39.452 39.564H37.868V38.052H38.372C38.828 38.052 39.056 37.896 39.056 37.584V29.988C39.056 29.676 38.828 29.52 38.372 29.52H37.868V27.972Z" fill="white"/>
</svg>
