<svg width="80" height="80" viewBox="0 0 80 80" fill="none" xmlns="http://www.w3.org/2000/svg">
<rect width="80" height="80" fill="#FF0000"/>
<path d="M37.376 40.32H42.128C44.24 40.32 45.296 41.4 45.296 43.56V50.508C45.296 52.836 44.276 54 42.236 54H39.536V44.784C39.536 44.4 39.476 44.136 39.356 43.992C39.26 43.824 38.996 43.74 38.564 43.74H37.376V40.32ZM34.64 43.38V49.5C34.64 49.788 34.652 49.992 34.676 50.112C34.748 50.424 35.108 50.58 35.756 50.58H38.096V54H31.364C30.02 54 29.144 53.688 28.736 53.064C28.352 52.44 28.16 51.468 28.16 50.148V46.008C28.16 45.168 28.328 44.52 28.664 44.064C29 43.608 29.672 43.38 30.68 43.38H34.64ZM33.956 27.972V36.756C33.956 37.14 34.004 37.416 34.1 37.584C34.22 37.728 34.496 37.8 34.928 37.8H36.08V41.22H31.724C29.372 41.22 28.196 40.14 28.196 37.98V31.464C28.196 30.144 28.46 29.232 28.988 28.728C29.516 28.224 30.392 27.972 31.616 27.972H33.956ZM35.396 27.972H41.912C43.256 27.972 44.156 28.272 44.612 28.872C45.068 29.472 45.296 30.396 45.296 31.644V36.756C45.296 37.932 44.552 38.52 43.064 38.52H39.536V32.472C39.536 32.064 39.476 31.788 39.356 31.644C39.236 31.476 38.924 31.392 38.42 31.392H35.396V27.972Z" fill="white"/>
</svg>
