<svg width="80" height="80" viewBox="0 0 80 80" fill="none" xmlns="http://www.w3.org/2000/svg">
<rect width="80" height="80" fill="#FF0000"/>
<path d="M39.716 27.972H42.776C43.76 27.972 44.456 28.188 44.864 28.62C45.272 29.028 45.476 29.748 45.476 30.78V37.368C45.476 38.472 45.188 39.3 44.612 39.852C45.212 40.38 45.512 41.328 45.512 42.696V50.904C45.512 52.248 45.32 53.1 44.936 53.46C44.552 53.82 43.724 54 42.452 54H39.752V43.56C39.752 43.176 39.692 42.912 39.572 42.768C39.476 42.6 39.212 42.516 38.78 42.516H34.892V39.096H37.556L38.744 39.06C39.296 39.06 39.608 38.94 39.68 38.7C39.704 38.628 39.716 38.52 39.716 38.376V27.972ZM38.312 31.392H34.892C34.388 31.392 34.076 31.476 33.956 31.644C33.836 31.788 33.776 32.064 33.776 32.472V36.468H29.816C28.928 36.468 28.4 36.396 28.232 36.252C28.088 36.108 28.016 35.664 28.016 34.92V31.824C28.016 30.504 28.208 29.532 28.592 28.908C29 28.284 29.876 27.972 31.22 27.972H38.312V31.392ZM33.776 45.504V49.5C33.776 49.908 33.836 50.196 33.956 50.364C34.076 50.508 34.388 50.58 34.892 50.58H38.312V54H31.22C29.876 54 29 53.688 28.592 53.064C28.208 52.44 28.016 51.468 28.016 50.148V47.052C28.016 46.308 28.088 45.864 28.232 45.72C28.4 45.576 28.928 45.504 29.816 45.504H33.776Z" fill="white"/>
</svg>
