<svg width="80" height="80" viewBox="0 0 80 80" fill="none" xmlns="http://www.w3.org/2000/svg">
<rect width="80" height="80" fill="#FF0000"/>
<path d="M35.964 28.008H43.2C44.544 28.008 45.444 28.32 45.9 28.944C46.356 29.544 46.584 30.468 46.584 31.716V52.308C46.584 53.484 45.84 54.072 44.352 54.072H40.824V32.544C40.824 32.136 40.764 31.86 40.644 31.716C40.524 31.548 40.212 31.464 39.708 31.464H35.964V28.008ZM34.956 46.08V49.5C34.956 49.908 34.992 50.196 35.064 50.364C35.16 50.508 35.376 50.58 35.712 50.58H39.384V54H32.4C31.056 54 30.18 53.688 29.772 53.064C29.388 52.44 29.196 51.468 29.196 50.148V47.628C29.196 46.884 29.268 46.44 29.412 46.296C29.58 46.152 30.108 46.08 30.996 46.08H34.956ZM34.524 28.008V38.268C34.524 38.652 34.572 38.928 34.668 39.096C34.788 39.24 35.064 39.312 35.496 39.312H39.384V42.732H32.652C30.3 42.732 29.124 41.652 29.124 39.492V31.536C29.124 30.216 29.388 29.304 29.916 28.8C30.444 28.272 31.32 28.008 32.544 28.008H34.524Z" fill="white"/>
</svg>
