<svg width="80" height="80" viewBox="0 0 80 80" fill="none" xmlns="http://www.w3.org/2000/svg">
<rect width="80" height="80" fill="#FF0000"/>
<path d="M39.908 39.696H38.612C38.18 39.696 37.904 39.78 37.784 39.948C37.664 40.092 37.604 40.356 37.604 40.74V51H32.744C32.12 51 31.688 50.904 31.448 50.712C31.232 50.496 31.124 50.148 31.124 49.668V38.868C31.124 37.98 31.304 37.332 31.664 36.924C32.024 36.492 32.66 36.276 33.572 36.276H39.908V39.696ZM48.476 51H43.976C43.16 51 42.62 50.868 42.356 50.604C42.116 50.34 41.996 49.788 41.996 48.948V43.332C41.996 42.492 42.116 41.94 42.356 41.676C42.62 41.412 43.16 41.28 43.976 41.28H48.476V51ZM38.18 34.62H33.68C32.864 34.62 32.324 34.488 32.06 34.224C31.82 33.96 31.7 33.408 31.7 32.568V26.988C31.7 26.148 31.82 25.596 32.06 25.332C32.324 25.068 32.864 24.936 33.68 24.936H38.18V34.62ZM43.184 24.972H48.044C48.74 24.972 49.184 25.104 49.376 25.368C49.568 25.632 49.664 26.184 49.664 27.024V37.968C49.664 38.568 49.58 39.012 49.412 39.3C49.244 39.564 48.872 39.696 48.296 39.696H41.348V36.276H42.212C42.644 36.276 42.908 36.204 43.004 36.06C43.124 35.892 43.184 35.616 43.184 35.232V24.972Z" fill="white"/>
</svg>
