<svg width="80" height="80" viewBox="0 0 80 80" fill="none" xmlns="http://www.w3.org/2000/svg">
<rect width="80" height="80" fill="#0900FF"/>
<path d="M40.528 27.972H43.3C44.26 27.972 45.052 28.044 45.676 28.188C46.324 28.332 46.876 28.62 47.332 29.052C47.812 29.484 48.172 29.976 48.412 30.528C48.676 31.056 48.88 31.872 49.024 32.976C49.24 34.632 49.348 37.284 49.348 40.932V41.04C49.348 46.536 49.072 49.944 48.52 51.264C47.968 52.656 47.176 53.496 46.144 53.784C45.592 53.928 44.908 54 44.092 54H40.528V50.58H41.752C42.376 50.58 42.772 50.496 42.94 50.328C43.132 50.16 43.228 49.896 43.228 49.536V32.436C43.228 32.076 43.132 31.812 42.94 31.644C42.772 31.476 42.376 31.392 41.752 31.392H40.528V27.972ZM39.088 31.392H37.864C37.24 31.392 36.832 31.476 36.64 31.644C36.472 31.812 36.388 32.076 36.388 32.436V49.536C36.388 49.896 36.472 50.16 36.64 50.328C36.832 50.496 37.24 50.58 37.864 50.58H39.088V54H35.524C33.724 54 32.416 53.448 31.6 52.344C30.928 51.456 30.52 49.416 30.376 46.224C30.304 44.976 30.268 43.248 30.268 41.04V40.932C30.268 35.292 30.568 31.824 31.168 30.528C31.432 29.976 31.792 29.484 32.248 29.052C32.728 28.62 33.28 28.332 33.904 28.188C34.552 28.044 35.356 27.972 36.316 27.972H39.088V31.392Z" fill="white"/>
</svg>
