<svg width="33" height="33" viewBox="0 0 33 33" fill="none" xmlns="http://www.w3.org/2000/svg">
<path d="M16.5688 26.125L20.4875 22.2406L16.5688 18.3563L15.125 19.8L16.6031 21.2781C15.9615 21.301 15.3372 21.1979 14.7304 20.9688C14.1235 20.7396 13.579 20.3844 13.0969 19.9031C12.6385 19.4448 12.2888 18.9177 12.0478 18.3219C11.8067 17.726 11.6866 17.1302 11.6875 16.5344C11.6875 16.1448 11.7393 15.7552 11.8429 15.3656C11.9465 14.976 12.0895 14.5979 12.2719 14.2313L10.7594 12.7188C10.3698 13.2917 10.0833 13.899 9.9 14.5406C9.71667 15.1823 9.625 15.8354 9.625 16.5C9.625 17.3708 9.79688 18.2302 10.1406 19.0781C10.4844 19.926 10.9885 20.6823 11.6531 21.3469C12.3177 22.0115 13.0625 22.5101 13.8875 22.8429C14.7125 23.1756 15.5604 23.353 16.4313 23.375L15.125 24.6813L16.5688 26.125ZM22.2406 20.2812C22.6302 19.7083 22.9167 19.101 23.1 18.4594C23.2833 17.8177 23.375 17.1646 23.375 16.5C23.375 15.6292 23.2086 14.7638 22.8759 13.904C22.5431 13.0442 22.0449 12.2824 21.3813 11.6187C20.7176 10.9551 19.9668 10.4624 19.129 10.1406C18.2912 9.81888 17.4378 9.65846 16.5688 9.65938L17.875 8.31875L16.4313 6.875L12.5125 10.7594L16.4313 14.6437L17.875 13.2L16.3625 11.6875C16.9813 11.6875 17.6115 11.808 18.2531 12.0491C18.8948 12.2902 19.4448 12.6395 19.9031 13.0969C20.3615 13.5543 20.7112 14.0814 20.9523 14.6781C21.1933 15.2749 21.3134 15.8707 21.3125 16.4656C21.3125 16.8552 21.2612 17.2448 21.1585 17.6344C21.0558 18.024 20.9124 18.4021 20.7281 18.7687L22.2406 20.2812ZM16.5 30.25C14.5979 30.25 12.8104 29.8888 11.1375 29.1665C9.46459 28.4442 8.00938 27.4647 6.77188 26.2281C5.53438 24.9915 4.55492 23.5363 3.8335 21.8625C3.11209 20.1887 2.75092 18.4012 2.75 16.5C2.74909 14.5988 3.11025 12.8113 3.8335 11.1375C4.55675 9.46367 5.53621 8.00846 6.77188 6.77188C8.00754 5.53529 9.46275 4.55583 11.1375 3.8335C12.8123 3.11117 14.5998 2.75 16.5 2.75C18.4003 2.75 20.1878 3.11117 21.8625 3.8335C23.5373 4.55583 24.9925 5.53529 26.2281 6.77188C27.4638 8.00846 28.4437 9.46367 29.1679 11.1375C29.892 12.8113 30.2528 14.5988 30.25 16.5C30.2473 18.4012 29.8861 20.1887 29.1665 21.8625C28.4469 23.5363 27.4675 24.9915 26.2281 26.2281C24.9888 27.4647 23.5336 28.4446 21.8625 29.1679C20.1914 29.8911 18.4039 30.2518 16.5 30.25Z" fill="black"/>
</svg>
