<svg width="33" height="33" viewBox="0 0 33 33" fill="none" xmlns="http://www.w3.org/2000/svg">
<path d="M16.6031 21.2781C15.9385 21.301 15.3028 21.1924 14.696 20.9522C14.0892 20.7121 13.5561 20.3624 13.0969 19.9031C12.6376 19.4439 12.2879 18.9283 12.0478 18.3563C11.8076 17.7843 11.6875 17.177 11.6875 16.5344C11.6875 16.3052 11.699 16.082 11.7219 15.8648C11.7448 15.6475 11.7906 15.4353 11.8594 15.2281C11.951 14.9531 11.9455 14.6781 11.8429 14.4031C11.7402 14.1281 11.5624 13.9333 11.3094 13.8188C11.0344 13.7042 10.7653 13.7042 10.5023 13.8188C10.2392 13.9333 10.0613 14.1281 9.96875 14.4031C9.85417 14.7469 9.76846 15.0906 9.71163 15.4344C9.65479 15.7781 9.62592 16.1333 9.625 16.5C9.625 17.4167 9.80284 18.2935 10.1585 19.1304C10.5142 19.9673 11.0124 20.7061 11.6531 21.3469C12.2719 21.9885 12.9997 22.4813 13.8366 22.825C14.6735 23.1688 15.5384 23.3521 16.4313 23.375L15.8469 23.9594C15.6406 24.1656 15.5375 24.4063 15.5375 24.6813C15.5375 24.9563 15.6406 25.1969 15.8469 25.4031C16.0531 25.6094 16.2938 25.7125 16.5688 25.7125C16.8438 25.7125 17.0844 25.6094 17.2906 25.4031L19.4906 23.2031C19.7656 22.9281 19.9031 22.6073 19.9031 22.2406C19.9031 21.874 19.7656 21.5531 19.4906 21.2781L17.2906 19.0781C17.0844 18.8719 16.8438 18.7687 16.5688 18.7687C16.2938 18.7687 16.0531 18.8719 15.8469 19.0781C15.6406 19.2844 15.5375 19.525 15.5375 19.8C15.5375 20.075 15.6406 20.3156 15.8469 20.5219L16.6031 21.2781ZM16.3625 11.6875C17.0271 11.6875 17.6688 11.808 18.2875 12.0491C18.9063 12.2902 19.4448 12.6395 19.9031 13.0969C20.3615 13.5543 20.7112 14.0699 20.9523 14.6437C21.1933 15.2176 21.3134 15.8249 21.3125 16.4656C21.3125 16.6948 21.301 16.918 21.2781 17.1352C21.2552 17.3525 21.2094 17.5647 21.1406 17.7719C21.049 18.0469 21.0549 18.3274 21.1585 18.6134C21.2621 18.8994 21.4395 19.1001 21.6906 19.2156C21.9656 19.3302 22.2351 19.3302 22.4991 19.2156C22.7631 19.101 22.9405 18.9063 23.0313 18.6313C23.1458 18.2875 23.232 17.9378 23.2898 17.5821C23.3475 17.2265 23.3759 16.8658 23.375 16.5C23.375 15.5833 23.2086 14.707 22.8759 13.871C22.5431 13.035 22.0449 12.2842 21.3813 11.6187C20.7396 10.9771 20.0008 10.4903 19.1648 10.1585C18.3288 9.82667 17.4634 9.66029 16.5688 9.65938L17.1875 9.04062C17.3708 8.83437 17.4625 8.59375 17.4625 8.31875C17.4625 8.04375 17.3594 7.80313 17.1531 7.59688C16.9469 7.39063 16.7063 7.2875 16.4313 7.2875C16.1563 7.2875 15.9156 7.39063 15.7094 7.59688L13.5094 9.79688C13.2344 10.0719 13.0969 10.3927 13.0969 10.7594C13.0969 11.126 13.2344 11.4469 13.5094 11.7219L15.7094 13.9219C15.9156 14.1281 16.1563 14.2313 16.4313 14.2313C16.7063 14.2313 16.9469 14.1281 17.1531 13.9219C17.3594 13.7156 17.4625 13.475 17.4625 13.2C17.4625 12.925 17.3594 12.6844 17.1531 12.4781L16.3625 11.6875ZM16.5 30.25C14.5979 30.25 12.8104 29.8888 11.1375 29.1665C9.46459 28.4442 8.00938 27.4647 6.77188 26.2281C5.53438 24.9915 4.55492 23.5363 3.8335 21.8625C3.11209 20.1887 2.75092 18.4012 2.75 16.5C2.74909 14.5988 3.11025 12.8113 3.8335 11.1375C4.55675 9.46367 5.53621 8.00846 6.77188 6.77188C8.00754 5.53529 9.46275 4.55583 11.1375 3.8335C12.8123 3.11117 14.5998 2.75 16.5 2.75C18.4003 2.75 20.1878 3.11117 21.8625 3.8335C23.5373 4.55583 24.9925 5.53529 26.2281 6.77188C27.4638 8.00846 28.4437 9.46367 29.1679 11.1375C29.892 12.8113 30.2528 14.5988 30.25 16.5C30.2473 18.4012 29.8861 20.1887 29.1665 21.8625C28.4469 23.5363 27.4675 24.9915 26.2281 26.2281C24.9888 27.4647 23.5336 28.4446 21.8625 29.1679C20.1914 29.8911 18.4039 30.2518 16.5 30.25ZM16.5 27.5C19.5708 27.5 22.1719 26.4344 24.3031 24.3031C26.4344 22.1719 27.5 19.5708 27.5 16.5C27.5 13.4292 26.4344 10.8281 24.3031 8.69687C22.1719 6.56562 19.5708 5.5 16.5 5.5C13.4292 5.5 10.8281 6.56562 8.69688 8.69687C6.56563 10.8281 5.5 13.4292 5.5 16.5C5.5 19.5708 6.56563 22.1719 8.69688 24.3031C10.8281 26.4344 13.4292 27.5 16.5 27.5Z" fill="black"/>
</svg>
